<?xml version="1.0" encoding="UTF-8" standalone="no"?>
<!-- Created with Inkscape (http://www.inkscape.org/) -->

<svg
   xmlns:dc="http://purl.org/dc/elements/1.1/"
   xmlns:cc="http://creativecommons.org/ns#"
   xmlns:rdf="http://www.w3.org/1999/02/22-rdf-syntax-ns#"
   xmlns:svg="http://www.w3.org/2000/svg"
   xmlns="http://www.w3.org/2000/svg"
   xmlns:sodipodi="http://sodipodi.sourceforge.net/DTD/sodipodi-0.dtd"
   xmlns:inkscape="http://www.inkscape.org/namespaces/inkscape"
   width="5.7234669mm"
   height="4.7751999mm"
   viewBox="0 0 20.28 16.92"
   id="svg2"
   version="1.1"
   inkscape:version="0.91 r13725"
   sodipodi:docname="comma-before.svg">
  <defs
     id="defs4" />
  <sodipodi:namedview
     id="base"
     pagecolor="#ffffff"
     bordercolor="#666666"
     borderopacity="1.0"
     inkscape:pageopacity="0.0"
     inkscape:pageshadow="2"
     inkscape:zoom="1"
     inkscape:cx="228.00749"
     inkscape:cy="-225.57414"
     inkscape:document-units="px"
     inkscape:current-layer="layer1"
     showgrid="false"
     inkscape:window-width="1855"
     inkscape:window-height="1056"
     inkscape:window-x="65"
     inkscape:window-y="24"
     inkscape:window-maximized="1"
     fit-margin-top="0"
     fit-margin-left="0"
     fit-margin-right="0"
     fit-margin-bottom="0"
     showguides="false" />
  <metadata
     id="metadata7">
    <rdf:RDF>
      <cc:Work
         rdf:about="">
        <dc:format>image/svg+xml</dc:format>
        <dc:type
           rdf:resource="http://purl.org/dc/dcmitype/StillImage" />
        <dc:title></dc:title>
      </cc:Work>
    </rdf:RDF>
  </metadata>
  <g
     inkscape:label="Layer 1"
     inkscape:groupmode="layer"
     id="layer1"
     transform="translate(-113.71658,-178.81191)">
    <g
       style="font-style:normal;font-weight:normal;font-size:78.46154022px;line-height:125%;font-family:sans-serif;letter-spacing:0px;word-spacing:0px;fill:#ffffff;fill-opacity:1;stroke:none;stroke-width:1px;stroke-linecap:butt;stroke-linejoin:miter;stroke-opacity:1"
       id="text4208">
      <path
         d="m 121.15658,178.81191 c -3.84,1.74 -7.44,5.88 -7.44,11.22 0,3.3 2.1,5.7 4.68,5.7 2.7,0 4.08,-2.04 4.08,-3.9 0,-2.16 -1.5,-3.84 -3.72,-3.84 -0.66,0 -1.32,0.18 -1.68,0.48 0,-2.64 2.1,-5.76 5.34,-7.38 l -1.26,-2.28 z m 11.52,0 c -3.84,1.74 -7.5,5.88 -7.5,11.22 0,3.3 2.16,5.7 4.74,5.7 2.7,0 4.08,-2.04 4.08,-3.9 0,-2.16 -1.5,-3.84 -3.78,-3.84 -0.66,0 -1.26,0.18 -1.62,0.48 0,-2.64 2.1,-5.76 5.34,-7.38 l -1.26,-2.28 z"
         style="font-size:60px;fill:#ffffff;fill-opacity:1"
         id="path4304" />
    </g>
  </g>
</svg>
