<?xml version="1.0" encoding="UTF-8" standalone="no"?>
<!-- Created with Inkscape (http://www.inkscape.org/) -->

<svg
   xmlns:dc="http://purl.org/dc/elements/1.1/"
   xmlns:cc="http://creativecommons.org/ns#"
   xmlns:rdf="http://www.w3.org/1999/02/22-rdf-syntax-ns#"
   xmlns:svg="http://www.w3.org/2000/svg"
   xmlns="http://www.w3.org/2000/svg"
   xmlns:sodipodi="http://sodipodi.sourceforge.net/DTD/sodipodi-0.dtd"
   xmlns:inkscape="http://www.inkscape.org/namespaces/inkscape"
   width="3.8156445mm"
   height="3.1834667mm"
   viewBox="0 0 13.52 11.28"
   id="svg2"
   version="1.1"
   inkscape:version="0.91 r13725"
   sodipodi:docname="comma-before-moblie.svg">
  <defs
     id="defs4" />
  <sodipodi:namedview
     id="base"
     pagecolor="#ffffff"
     bordercolor="#666666"
     borderopacity="1.0"
     inkscape:pageopacity="0.0"
     inkscape:pageshadow="2"
     inkscape:zoom="1"
     inkscape:cx="240.50749"
     inkscape:cy="-214.27413"
     inkscape:document-units="px"
     inkscape:current-layer="layer1"
     showgrid="false"
     inkscape:window-width="1855"
     inkscape:window-height="1056"
     inkscape:window-x="65"
     inkscape:window-y="24"
     inkscape:window-maximized="1"
     fit-margin-top="0"
     fit-margin-left="0"
     fit-margin-right="0"
     fit-margin-bottom="0"
     showguides="false" />
  <metadata
     id="metadata7">
    <rdf:RDF>
      <cc:Work
         rdf:about="">
        <dc:format>image/svg+xml</dc:format>
        <dc:type
           rdf:resource="http://purl.org/dc/dcmitype/StillImage" />
        <dc:title></dc:title>
      </cc:Work>
    </rdf:RDF>
  </metadata>
  <g
     inkscape:label="Layer 1"
     inkscape:groupmode="layer"
     id="layer1"
     transform="translate(-101.21658,-195.75191)">
    <g
       style="font-style:normal;font-weight:normal;font-size:78.46154022px;line-height:125%;font-family:sans-serif;letter-spacing:0px;word-spacing:0px;fill:#ffffff;fill-opacity:1;stroke:none;stroke-width:1px;stroke-linecap:butt;stroke-linejoin:miter;stroke-opacity:1"
       id="text4208">
      <path
         d="m 106.17658,195.75191 c -2.56,1.16 -4.96,3.92 -4.96,7.48 0,2.2 1.4,3.8 3.12,3.8 1.8,0 2.72,-1.36 2.72,-2.6 0,-1.44 -1,-2.56 -2.48,-2.56 -0.44,0 -0.88,0.12 -1.12,0.32 0,-1.76 1.4,-3.84 3.56,-4.92 l -0.84,-1.52 z m 7.68,0 c -2.56,1.16 -5,3.92 -5,7.48 0,2.2 1.44,3.8 3.16,3.8 1.8,0 2.72,-1.36 2.72,-2.6 0,-1.44 -1,-2.56 -2.52,-2.56 -0.44,0 -0.84,0.12 -1.08,0.32 0,-1.76 1.4,-3.84 3.56,-4.92 l -0.84,-1.52 z"
         style="font-size:40px;fill:#ffffff;fill-opacity:1"
         id="path4333" />
    </g>
  </g>
</svg>
