<?xml version="1.0" encoding="UTF-8" standalone="no"?>
<!-- Created with Inkscape (http://www.inkscape.org/) -->

<svg
   xmlns:dc="http://purl.org/dc/elements/1.1/"
   xmlns:cc="http://creativecommons.org/ns#"
   xmlns:rdf="http://www.w3.org/1999/02/22-rdf-syntax-ns#"
   xmlns:svg="http://www.w3.org/2000/svg"
   xmlns="http://www.w3.org/2000/svg"
   xmlns:sodipodi="http://sodipodi.sourceforge.net/DTD/sodipodi-0.dtd"
   xmlns:inkscape="http://www.inkscape.org/namespaces/inkscape"
   width="42.141941mm"
   height="10.488383mm"
   viewBox="0 0 149.32184 37.163563"
   id="svg2"
   version="1.1"
   inkscape:version="0.91 r13725"
   sodipodi:docname="warning-sign.svg">
  <defs
     id="defs4" />
  <sodipodi:namedview
     id="base"
     pagecolor="#ffffff"
     bordercolor="#666666"
     borderopacity="1.0"
     inkscape:pageopacity="0.0"
     inkscape:pageshadow="2"
     inkscape:zoom="3.959798"
     inkscape:cx="87.332584"
     inkscape:cy="-54.587854"
     inkscape:document-units="px"
     inkscape:current-layer="layer1-35"
     showgrid="false"
     fit-margin-top="0"
     fit-margin-left="0"
     fit-margin-right="0"
     fit-margin-bottom="0"
     inkscape:window-width="1855"
     inkscape:window-height="1056"
     inkscape:window-x="65"
     inkscape:window-y="24"
     inkscape:window-maximized="1" />
  <metadata
     id="metadata7">
    <rdf:RDF>
      <cc:Work
         rdf:about="">
        <dc:format>image/svg+xml</dc:format>
        <dc:type
           rdf:resource="http://purl.org/dc/dcmitype/StillImage" />
        <dc:title />
      </cc:Work>
    </rdf:RDF>
  </metadata>
  <g
     inkscape:label="Layer 1"
     inkscape:groupmode="layer"
     id="layer1"
     transform="translate(-91.732662,-469.18222)">
    <g
       transform="matrix(0.77903797,0,0,0.77903797,83.203449,-149.27042)"
       id="layer1-35"
       inkscape:label="Layer 1">
      <g
         inkscape:label="Layer 1"
         id="layer1-2"
         transform="translate(-154.79326,484.39071)"
         style="fill:#000000;fill-opacity:1">
        <g
           transform="matrix(0.25127491,0,0,0.25127491,122.77014,246.38062)"
           id="layer1-3"
           inkscape:label="Layer 1"
           style="fill:#000000;fill-opacity:1">
          <g
             inkscape:transform-center-y="974.28571"
             inkscape:transform-center-x="140"
             transform="translate(171.01342,220.51867)"
             id="g4183"
             style="fill:#000000;fill-opacity:1">
            <g
               transform="matrix(0.61393756,0,0,0.61393756,1.9961577e-4,11.807334)"
               style="fill:#000000;fill-opacity:1"
               id="g4137">
              <g
                 style="fill:#000000;fill-opacity:1"
                 id="g4139">
                <path
                   inkscape:connector-curvature="0"
                   style="fill:#000000;fill-opacity:1"
                   d="m 21.617,290.246 277.604,0 c 9.469,0 17.013,-4.553 20.168,-12.184 2.904,-7.011 1.36,-14.8 -4.107,-21.212 L 180.497,39.684 179.164,38.351 c -5.009,-5.009 -11.667,-7.767 -18.748,-7.767 -7.082,0 -13.739,2.758 -18.743,7.767 L 140.34,39.684 5.55,256.844 c -5.466,6.413 -7.016,14.207 -4.106,21.212 3.159,7.632 10.698,12.19 20.173,12.19 z M 160.416,69.213 277.35,257.606 l -233.863,0 116.929,-188.393 z"
                   id="path4141" />
                <path
                   inkscape:connector-curvature="0"
                   style="fill:#000000;fill-opacity:1"
                   d="m 160.416,105.345 c -9.197,0 -16.654,7.457 -16.654,16.654 l 0,71.388 c 0,9.197 7.457,16.654 16.654,16.654 9.197,0 16.654,-7.457 16.654,-16.654 l 0,-71.388 c 0.006,-9.197 -7.451,-16.654 -16.654,-16.654 z"
                   id="path4143" />
                <circle
                   style="fill:#000000;fill-opacity:1"
                   cx="160.248"
                   cy="234.903"
                   r="16.486"
                   id="circle4145" />
              </g>
            </g>
            <g
               id="g4147"
               style="fill:#000000;fill-opacity:1" />
            <g
               id="g4149"
               style="fill:#000000;fill-opacity:1" />
            <g
               id="g4151"
               style="fill:#000000;fill-opacity:1" />
            <g
               id="g4153"
               style="fill:#000000;fill-opacity:1" />
            <g
               id="g4155"
               style="fill:#000000;fill-opacity:1" />
            <g
               id="g4157"
               style="fill:#000000;fill-opacity:1" />
            <g
               id="g4159"
               style="fill:#000000;fill-opacity:1" />
            <g
               id="g4161"
               style="fill:#000000;fill-opacity:1" />
            <g
               id="g4163"
               style="fill:#000000;fill-opacity:1" />
            <g
               id="g4165"
               style="fill:#000000;fill-opacity:1" />
            <g
               id="g4167"
               style="fill:#000000;fill-opacity:1" />
            <g
               id="g4169"
               style="fill:#000000;fill-opacity:1" />
            <g
               id="g4171"
               style="fill:#000000;fill-opacity:1" />
            <g
               id="g4173"
               style="fill:#000000;fill-opacity:1" />
            <g
               id="g4175"
               style="fill:#000000;fill-opacity:1" />
          </g>
        </g>
        <g
           id="text4220"
           style="font-style:normal;font-weight:normal;font-size:40px;line-height:125%;font-family:sans-serif;letter-spacing:0px;word-spacing:0px;fill:#000000;fill-opacity:1;stroke:none;stroke-width:1px;stroke-linecap:butt;stroke-linejoin:miter;stroke-opacity:1">
          <path
             inkscape:connector-curvature="0"
             id="path4313"
             style="font-style:normal;font-variant:normal;font-weight:normal;font-stretch:normal;font-family:Sawasdee;-inkscape-font-specification:Sawasdee;fill:#000000;fill-opacity:1"
             d="m 217.63115,317.84491 1.73828,0 8.57422,24.12109 8.39844,-24.47265 8.3789,24.47265 8.4961,-24.12109 1.875,0 -10.3711,29.49219 -8.33984,-24.33594 -8.35938,24.33594 -10.39062,-29.49219 z" />
          <path
             inkscape:connector-curvature="0"
             id="path4315"
             style="font-style:normal;font-variant:normal;font-weight:normal;font-stretch:normal;font-family:Sawasdee;-inkscape-font-specification:Sawasdee;fill:#000000;fill-opacity:1"
             d="m 270.89287,347.00507 -1.875,0 q -0.35156,-1.11329 -0.35156,-2.61719 l 0,-1.54297 q -1.40625,1.95312 -3.37891,3.22266 -1.95313,1.26953 -4.14063,1.26953 -1.58203,0 -2.83203,-0.48828 -1.23047,-0.50782 -1.95312,-1.32813 -0.72266,-0.82031 -1.09375,-1.73828 -0.3711,-0.9375 -0.3711,-1.89453 0,-0.9961 0.29297,-1.83594 0.3125,-0.83984 0.78125,-1.42578 0.48828,-0.60547 1.26953,-1.07422 0.80079,-0.48828 1.52344,-0.78125 0.74219,-0.3125 1.83594,-0.52734 1.09375,-0.23438 1.89453,-0.33203 0.80078,-0.11719 1.99219,-0.17579 1.1914,-0.0586 1.875,-0.0586 0.70312,-0.0195 1.77734,-0.0195 l 0.52735,0 q -0.0977,-3.22266 -1.91407,-5.13672 -1.79687,-1.91406 -4.16015,-1.91406 -1.38672,0 -2.71485,0.72265 -1.30859,0.72266 -2.28515,2.10938 l -1.38672,-0.91797 q 1.1914,-1.83594 2.87109,-2.75391 1.67969,-0.91796 3.51563,-0.91796 1.48437,0 2.85156,0.60546 1.38672,0.58594 2.48047,1.67969 1.09375,1.07422 1.75781,2.77344 0.68359,1.69922 0.72266,3.75 l 0,8.73047 q 0,1.69922 0.48828,2.61719 z m -9.7461,-1.40625 q 2.2461,0 4.35547,-1.50391 2.10938,-1.50391 3.16407,-3.4375 l 0,-3.75 q -0.91797,0.0195 -1.54297,0.0391 -0.60547,0.0195 -1.67969,0.0977 -1.05469,0.0586 -1.79688,0.15625 -0.74218,0.0781 -1.73828,0.27344 -0.97656,0.19531 -1.66015,0.44921 -0.6836,0.23438 -1.42578,0.625 -0.72266,0.3711 -1.17188,0.83985 -0.44922,0.44922 -0.74219,1.09375 -0.27343,0.64453 -0.27343,1.40625 0,1.40625 1.17187,2.55859 1.17188,1.15235 3.33984,1.15235 z" />
          <path
             inkscape:connector-curvature="0"
             id="path4317"
             style="font-style:normal;font-variant:normal;font-weight:normal;font-stretch:normal;font-family:Sawasdee;-inkscape-font-specification:Sawasdee;fill:#000000;fill-opacity:1"
             d="m 276.42021,327.20038 1.875,0 q 0.3711,1.28906 0.3711,2.61719 l 0,2.46093 q 0.44921,-1.5039 2.08984,-3.125 1.64062,-1.62109 3.30078,-2.26562 l 1.95313,1.38672 q -1.71875,0 -3.4375,1.21093 -1.69922,1.21094 -2.8125,3.22266 -1.09375,1.99219 -1.09375,4.12109 l 0,10.17579 -1.75782,0 0,-17.1875 q 0,-1.67969 -0.48828,-2.61719 z" />
          <path
             inkscape:connector-curvature="0"
             id="path4319"
             style="font-style:normal;font-variant:normal;font-weight:normal;font-stretch:normal;font-family:Sawasdee;-inkscape-font-specification:Sawasdee;fill:#000000;fill-opacity:1"
             d="m 289.07646,327.20038 1.875,0 q 0.3711,1.28906 0.3711,2.61719 l 0,2.96875 q 1.07421,-2.44141 2.96875,-4.16016 1.91406,-1.73828 3.71093,-1.73828 1.99219,0 3.35938,1.11328 1.38672,1.11328 1.99219,2.85156 0.625,1.73828 0.625,3.92578 l 0,12.22657 -1.71875,0 0,-12.22657 q 0,-1.07422 -0.21485,-2.07031 -0.19531,-0.99609 -0.64453,-1.95312 -0.44922,-0.95704 -1.34766,-1.52344 -0.8789,-0.58594 -2.08984,-0.58594 -1.15234,0 -2.40234,0.89844 -1.23047,0.89844 -2.14844,2.20703 -0.89844,1.28906 -1.50391,2.75391 -0.58593,1.46484 -0.58593,2.57812 l 0,9.92188 -1.75782,0 0,-17.1875 q 0,-1.67969 -0.48828,-2.61719 z" />
          <path
             inkscape:connector-curvature="0"
             id="path4321"
             style="font-style:normal;font-variant:normal;font-weight:normal;font-stretch:normal;font-family:Sawasdee;-inkscape-font-specification:Sawasdee;fill:#000000;fill-opacity:1"
             d="m 309.79912,322.51288 q 0,-0.64453 0.44922,-1.11328 0.46875,-0.46875 1.13281,-0.46875 0.64453,0 1.09375,0.46875 0.46875,0.46875 0.46875,1.11328 0,0.66406 -0.44922,1.13281 -0.44922,0.44922 -1.11328,0.44922 -0.66406,0 -1.13281,-0.44922 -0.44922,-0.46875 -0.44922,-1.13281 z m 2.46094,24.49219 -1.75782,0 0,-19.80469 1.75782,0 0,19.80469 z" />
          <path
             inkscape:connector-curvature="0"
             id="path4323"
             style="font-style:normal;font-variant:normal;font-weight:normal;font-stretch:normal;font-family:Sawasdee;-inkscape-font-specification:Sawasdee;fill:#000000;fill-opacity:1"
             d="m 318.29521,327.20038 1.875,0 q 0.3711,1.28906 0.3711,2.61719 l 0,2.96875 q 1.07421,-2.44141 2.96875,-4.16016 1.91406,-1.73828 3.71093,-1.73828 1.99219,0 3.35938,1.11328 1.38672,1.11328 1.99219,2.85156 0.625,1.73828 0.625,3.92578 l 0,12.22657 -1.71875,0 0,-12.22657 q 0,-1.07422 -0.21485,-2.07031 -0.19531,-0.99609 -0.64453,-1.95312 -0.44922,-0.95704 -1.34766,-1.52344 -0.8789,-0.58594 -2.08984,-0.58594 -1.15234,0 -2.40234,0.89844 -1.23047,0.89844 -2.14844,2.20703 -0.89844,1.28906 -1.50391,2.75391 -0.58593,1.46484 -0.58593,2.57812 l 0,9.92188 -1.75782,0 0,-17.1875 q 0,-1.67969 -0.48828,-2.61719 z" />
          <path
             inkscape:connector-curvature="0"
             id="path4325"
             style="font-style:normal;font-variant:normal;font-weight:normal;font-stretch:normal;font-family:Sawasdee;-inkscape-font-specification:Sawasdee;fill:#000000;fill-opacity:1"
             d="m 355.54131,327.20038 1.875,0 q -0.46875,0.89844 -0.46875,2.61719 l 0,17.1875 q 0,2.73437 -1.23047,5.07812 -1.21094,2.34375 -3.32032,3.71094 -2.10937,1.38672 -4.60937,1.38672 -3.4375,0 -5.97656,-2.53907 l 1.26953,-1.21093 q 2.07031,2.01172 4.78515,2.01172 3.00782,0 5.17579,-2.46094 2.16796,-2.46094 2.16796,-5.97656 l 0,-5.07813 q -0.72265,2.12891 -2.91015,3.75 -2.16797,1.62109 -4.4336,1.62109 -2.48046,0 -4.57031,-1.38671 -2.07031,-1.38672 -3.26172,-3.73047 -1.17187,-2.36328 -1.17187,-5.09766 0,-2.73437 1.17187,-5.05859 1.19141,-2.34375 3.26172,-3.73047 2.08985,-1.40625 4.57031,-1.40625 2.22657,0 4.41407,1.67969 2.1875,1.66015 2.92968,3.71093 l 0,-2.46093 q 0,-1.46485 0.33204,-2.61719 z m -0.44922,9.88281 q 0,-3.51562 -2.1875,-5.97656 -2.16797,-2.46094 -5.15625,-2.46094 -3.00782,0 -5.17578,2.46094 -2.16797,2.46094 -2.16797,5.97656 0,3.51563 2.16797,5.99609 2.1875,2.48047 5.17578,2.48047 2.98828,0 5.15625,-2.48047 2.1875,-2.5 2.1875,-5.99609 z" />
        </g>
      </g>
    </g>
  </g>
</svg>
